ffmpeg started on 2016-12-06 at 09:39:41
Report written to "Output/x264/results/ffmpeg/crowd_run_2160p50fast10000k.log"
Command line:
Tools/ffmpeg/ffmpeg -benchmark -y -i Input/y4m/crowd_run_2160p50.y4m -c:v libx264 -preset fast -b:v 10000k -an Output/x264/encoded/crowd_run_2160p50fast10000k.mkv
ffmpeg version N-82227-gdb23fde Copyright (c) 2000-2016 the FFmpeg developers
  built with gcc 5.4.0 (Ubuntu 5.4.0-6ubuntu1~16.04.2) 20160609
  configuration: --prefix=/home/jaroslav/ffmpeg_build --pkg-config-flags=--static --extra-cflags=-I/home/jaroslav/ffmpeg_build/include --extra-ldflags=-L/home/jaroslav/ffmpeg_build/lib --bindir=/home/jaroslav/bin --enable-gpl --enable-libass --enable-libfdk-aac --enable-libfreetype --enable-libmp3lame --enable-libopus --enable-libtheora --enable-libvorbis --enable-libvpx --enable-libx264 --enable-libx265 --enable-nvenc --enable-libmfx --enable-libxvid --enable-libgsm --enable-libopencore-amrnb --enable-version3 --enable-nonfree
  libavutil      55. 35.100 / 55. 35.100
  libavcodec     57. 66.101 / 57. 66.101
  libavformat    57. 57.100 / 57. 57.100
  libavdevice    57.  2.100 / 57.  2.100
  libavfilter     6. 66.100 /  6. 66.100
  libswscale      4.  3.100 /  4.  3.100
  libswresample   2.  4.100 /  2.  4.100
  libpostproc    54.  2.100 / 54.  2.100
Input #0, yuv4mpegpipe, from 'Input/y4m/crowd_run_2160p50.y4m':
  Duration: 00:00:10.00, start: 0.000000, bitrate: 4976642 kb/s
    Stream #0:0: Video: rawvideo (I420 / 0x30323449), yuv420p(progressive), 3840x2160, SAR 1:1 DAR 16:9, 50 fps, 50 tbr, 50 tbn, 50 tbc
[libx264 @ 0x31331c0] using SAR=1/1
[libx264 @ 0x31331c0] using cpu capabilities: MMX2 SSE2Fast SSSE3 SSE4.2 AVX FMA3 AVX2 LZCNT BMI2
[libx264 @ 0x31331c0] profile High, level 5.2
[libx264 @ 0x31331c0] 264 - core 148 - H.264/MPEG-4 AVC codec - Copyleft 2003-2016 - http://www.videolan.org/x264.html - options: cabac=1 ref=2 deblock=1:0:0 analyse=0x3:0x113 me=hex subme=6 psy=1 psy_rd=1.00:0.00 mixed_ref=1 me_range=16 chroma_me=1 trellis=1 8x8dct=1 cqm=0 deadzone=21,11 fast_pskip=1 chroma_qp_offset=-2 threads=6 lookahead_threads=1 sliced_threads=0 nr=0 decimate=1 interlaced=0 bluray_compat=0 constrained_intra=0 bframes=3 b_pyramid=2 b_adapt=1 b_bias=0 direct=1 weightb=1 open_gop=0 weightp=1 keyint=250 keyint_min=25 scenecut=40 intra_refresh=0 rc_lookahead=30 rc=abr mbtree=1 bitrate=10000 ratetol=1.0 qcomp=0.60 qpmin=0 qpmax=69 qpstep=4 ip_ratio=1.40 aq=1:1.00
Output #0, matroska, to 'Output/x264/encoded/crowd_run_2160p50fast10000k.mkv':
  Metadata:
    encoder         : Lavf57.57.100
    Stream #0:0: Video: h264 (libx264) (H264 / 0x34363248), yuv420p, 3840x2160 [SAR 1:1 DAR 16:9], q=-1--1, 10000 kb/s, 50 fps, 1k tbn, 50 tbc
    Metadata:
      encoder         : Lavc57.66.101 libx264
    Side data:
      cpb: bitrate max/min/avg: 0/0/10000000 buffer size: 0 vbv_delay: -1
Stream mapping:
  Stream #0:0 -> #0:0 (rawvideo (native) -> h264 (libx264))
Press [q] to stop, [?] for help
frame=   19 fps=0.0 q=0.0 size=       0kB time=00:00:00.00 bitrate=N/A speed=   0x    frame=   26 fps= 24 q=0.0 size=       0kB time=00:00:00.00 bitrate=N/A speed=   0x    frame=   33 fps= 19 q=0.0 size=       0kB time=00:00:00.00 bitrate=N/A speed=   0x    frame=   37 fps= 11 q=0.0 size=       0kB time=00:00:00.00 bitrate=N/A speed=   0x    frame=   43 fps= 10 q=34.0 size=       1kB time=00:00:00.00 bitrate=5872.0kbits/s speed=0.000243x    frame=   48 fps= 10 q=41.0 size=       1kB time=00:00:00.10 bitrate=  58.1kbits/s speed=0.0214x    frame=   56 fps= 10 q=50.0 size=       1kB time=00:00:00.26 bitrate=  22.5kbits/s speed=0.0485x    frame=   64 fps= 11 q=49.0 size=       1kB time=00:00:00.42 bitrate=  13.9kbits/s speed=0.0714x    frame=   73 fps= 11 q=49.0 size=       1kB time=00:00:00.60 bitrate=   9.8kbits/s speed=0.0935x    frame=   79 fps= 11 q=49.0 size=       1kB time=00:00:00.72 bitrate=   8.1kbits/s speed=0.104x    frame=   83 fps= 11 q=49.0 size=       1kB time=00:00:00.80 bitrate=   7.3kbits/s speed=0.107x    frame=   91 fps= 11 q=49.0 size=       1kB time=00:00:00.96 bitrate=   6.1kbits/s speed=0.119x    frame=   99 fps= 12 q=49.0 size=       1kB time=00:00:01.12 bitrate=   5.2kbits/s speed=0.131x    frame=  107 fps= 12 q=48.0 size=       1kB time=00:00:01.28 bitrate=   4.6kbits/s speed=0.141x    frame=  113 fps= 12 q=48.0 size=       1kB time=00:00:01.40 bitrate=   4.2kbits/s speed=0.146x    frame=  121 fps= 12 q=48.0 size=       1kB time=00:00:01.56 bitrate=   3.8kbits/s speed=0.155x    frame=  129 fps= 12 q=48.0 size=       1kB time=00:00:01.72 bitrate=   3.4kbits/s speed=0.162x    frame=  136 fps= 12 q=48.0 size=       1kB time=00:00:01.86 bitrate=   3.2kbits/s speed=0.165x    frame=  145 fps= 12 q=47.0 size=       1kB time=00:00:02.04 bitrate=   2.9kbits/s speed=0.173x    frame=  152 fps= 12 q=47.0 size=       1kB time=00:00:02.18 bitrate=   2.7kbits/s speed=0.177x    frame=  160 fps= 12 q=47.0 size=       1kB time=00:00:02.34 bitrate=   2.5kbits/s speed=0.182x    frame=  165 fps= 12 q=47.0 size=       1kB time=00:00:02.44 bitrate=   2.4kbits/s speed=0.179x    frame=  172 fps= 12 q=47.0 size=       1kB time=00:00:02.58 bitrate=   2.3kbits/s speed=0.183x    frame=  180 fps= 12 q=47.0 size=       1kB time=00:00:02.74 bitrate=   2.1kbits/s speed=0.186x    frame=  188 fps= 12 q=47.0 size=       1kB time=00:00:02.90 bitrate=   2.0kbits/s speed=0.189x    frame=  196 fps= 12 q=47.0 size=       1kB time=00:00:03.06 bitrate=   1.9kbits/s speed=0.193x    frame=  204 fps= 12 q=47.0 size=       1kB time=00:00:03.22 bitrate=   1.8kbits/s speed=0.197x    frame=  211 fps= 12 q=47.0 size=       1kB time=00:00:03.36 bitrate=   1.7kbits/s speed=0.198x    frame=  219 fps= 12 q=47.0 size=       1kB time=00:00:03.52 bitrate=   1.7kbits/s speed=0.201x    frame=  225 fps= 12 q=47.0 size=       1kB time=00:00:03.64 bitrate=   1.6kbits/s speed=0.202x    frame=  232 fps= 12 q=47.0 size=       1kB time=00:00:03.78 bitrate=   1.6kbits/s speed=0.203x    frame=  239 fps= 13 q=47.0 size=    5127kB time=00:00:03.92 bitrate=10712.6kbits/s speed=0.205x    frame=  247 fps= 13 q=47.0 size=    5127kB time=00:00:04.08 bitrate=10292.6kbits/s speed=0.207x    frame=  255 fps= 13 q=47.0 size=    5127kB time=00:00:04.24 bitrate=9904.3kbits/s speed=0.209x    frame=  263 fps= 13 q=47.0 size=    5127kB time=00:00:04.40 bitrate=9544.2kbits/s speed=0.211x    frame=  268 fps= 13 q=47.0 size=    5127kB time=00:00:04.50 bitrate=9332.2kbits/s speed=0.211x    frame=  276 fps= 13 q=47.0 size=    5127kB time=00:00:04.66 bitrate=9011.8kbits/s speed=0.213x    frame=  283 fps= 12 q=47.0 size=    5127kB time=00:00:04.80 bitrate=8749.0kbits/s speed=0.212x    frame=  286 fps= 12 q=44.0 size=    5127kB time=00:00:04.86 bitrate=8641.1kbits/s speed=0.207x    frame=  296 fps= 12 q=47.0 size=    6339kB time=00:00:05.06 bitrate=10260.1kbits/s speed=0.21x    frame=  302 fps= 12 q=47.0 size=    6339kB time=00:00:05.18 bitrate=10022.5kbits/s speed=0.21x    frame=  310 fps= 12 q=47.0 size=    6339kB time=00:00:05.34 bitrate=9722.2kbits/s speed=0.212x    frame=  316 fps= 12 q=47.0 size=    6339kB time=00:00:05.46 bitrate=9508.6kbits/s speed=0.213x    frame=  322 fps= 12 q=47.0 size=    6339kB time=00:00:05.58 bitrate=9304.1kbits/s speed=0.213x    frame=  329 fps= 12 q=47.0 size=    6339kB time=00:00:05.72 bitrate=9076.5kbits/s speed=0.214x    frame=  337 fps= 12 q=47.0 size=    6339kB time=00:00:05.88 bitrate=8829.5kbits/s speed=0.215x    frame=  345 fps= 12 q=47.0 size=    6339kB time=00:00:06.04 bitrate=8595.7kbits/s speed=0.216x    frame=  352 fps= 12 q=47.0 size=    6339kB time=00:00:06.18 bitrate=8401.0kbits/s speed=0.217x    frame=  358 fps= 12 q=47.0 size=    6339kB time=00:00:06.30 bitrate=8241.0kbits/s speed=0.217x    frame=  366 fps= 12 q=47.0 size=    6339kB time=00:00:06.46 bitrate=8036.9kbits/s speed=0.219x    frame=  372 fps= 12 q=47.0 size=    6339kB time=00:00:06.58 bitrate=7890.3kbits/s speed=0.219x    frame=  379 fps= 12 q=47.0 size=    6339kB time=00:00:06.72 bitrate=7726.0kbits/s speed=0.22x    frame=  386 fps= 12 q=47.0 size=    6339kB time=00:00:06.86 bitrate=7568.3kbits/s speed=0.22x    frame=  394 fps= 12 q=47.0 size=    6339kB time=00:00:07.02 bitrate=7395.9kbits/s speed=0.221x    frame=  401 fps= 12 q=47.0 size=    6339kB time=00:00:07.16 bitrate=7251.3kbits/s speed=0.221x    frame=  410 fps= 12 q=47.0 size=    6339kB time=00:00:07.34 bitrate=7073.5kbits/s speed=0.223x    frame=  415 fps= 12 q=47.0 size=    6339kB time=00:00:07.44 bitrate=6978.4kbits/s speed=0.222x    frame=  423 fps= 12 q=47.0 size=    6339kB time=00:00:07.60 bitrate=6831.5kbits/s speed=0.223x    frame=  430 fps= 12 q=47.0 size=    6339kB time=00:00:07.74 bitrate=6708.0kbits/s speed=0.223x    frame=  438 fps= 12 q=47.0 size=    6339kB time=00:00:07.90 bitrate=6572.1kbits/s speed=0.225x    frame=  445 fps= 12 q=47.0 size=    6339kB time=00:00:08.04 bitrate=6457.7kbits/s speed=0.225x    frame=  452 fps= 12 q=47.0 size=    6339kB time=00:00:08.18 bitrate=6347.2kbits/s speed=0.226x    frame=  459 fps= 12 q=47.0 size=    6339kB time=00:00:08.32 bitrate=6240.4kbits/s speed=0.226x    frame=  465 fps= 12 q=47.0 size=    6339kB time=00:00:08.44 bitrate=6151.7kbits/s speed=0.226x    frame=  471 fps= 12 q=47.0 size=    6339kB time=00:00:08.56 bitrate=6065.5kbits/s speed=0.226x    frame=  479 fps= 12 q=47.0 size=    6339kB time=00:00:08.72 bitrate=5954.2kbits/s speed=0.227x    frame=  486 fps= 12 q=47.0 size=    6339kB time=00:00:08.86 bitrate=5860.1kbits/s speed=0.227x    frame=  493 fps= 12 q=47.0 size=    6339kB time=00:00:09.00 bitrate=5769.0kbits/s speed=0.228x    frame=  500 fps= 12 q=47.0 size=   11464kB time=00:00:09.14 bitrate=10273.7kbits/s speed=0.228x    frame=  500 fps= 12 q=-1.0 Lsize=   12429kB time=00:00:09.94 bitrate=10242.5kbits/s speed=0.235x    
video:12425kB audio:0kB subtitle:0kB other streams:0kB global headers:0kB muxing overhead: 0.036312%
bench: utime=143.260s
bench: maxrss=1598768kB
[libx264 @ 0x31331c0] frame I:2     Avg QP:35.83  size:333885
[libx264 @ 0x31331c0] frame P:126   Avg QP:45.73  size: 43477
[libx264 @ 0x31331c0] frame B:372   Avg QP:48.35  size: 17678
[libx264 @ 0x31331c0] consecutive B-frames:  0.8%  0.0%  0.0% 99.2%
[libx264 @ 0x31331c0] mb I  I16..4: 19.8% 68.5% 11.7%
[libx264 @ 0x31331c0] mb P  I16..4:  2.8%  5.7%  0.0%  P16..4: 29.4%  4.0%  2.0%  0.0%  0.0%    skip:56.0%
[libx264 @ 0x31331c0] mb B  I16..4:  1.6%  1.9%  0.0%  B16..8: 15.2%  1.2%  0.0%  direct: 6.9%  skip:73.2%  L0:43.5% L1:55.3% BI: 1.1%
[libx264 @ 0x31331c0] final ratefactor: 38.77
[libx264 @ 0x31331c0] 8x8 transform intra:60.7% inter:92.3%
[libx264 @ 0x31331c0] coded y,uvDC,uvAC intra: 18.3% 51.5% 14.0% inter: 3.4% 7.1% 0.1%
[libx264 @ 0x31331c0] i16 v,h,dc,p: 47% 23% 13% 17%
[libx264 @ 0x31331c0] i8 v,h,dc,ddl,ddr,vr,hd,vl,hu: 15% 10% 43%  6%  5%  6%  5%  6%  4%
[libx264 @ 0x31331c0] i4 v,h,dc,ddl,ddr,vr,hd,vl,hu: 21% 16% 13%  9%  9%  9%  8%  8%  7%
[libx264 @ 0x31331c0] i8c dc,h,v,p: 82%  6% 11%  1%
[libx264 @ 0x31331c0] Weighted P-Frames: Y:1.6% UV:0.0%
[libx264 @ 0x31331c0] ref P L0: 70.7% 29.3%
[libx264 @ 0x31331c0] ref B L0: 88.6% 11.4%
[libx264 @ 0x31331c0] ref B L1: 97.5%  2.5%
[libx264 @ 0x31331c0] kb/s:10177.78
